<?xml version="1.0" encoding="UTF-8"?>
<svg width="752pt" height="752pt" version="1.1" viewBox="0 0 752 752" xmlns="http://www.w3.org/2000/svg">
 <g>
  <path d="m358.78 221.01v172.21h172.21c-8.6445 76.832-75.387 137.77-154.99 137.77-84.906 0-154.99-70.082-154.99-154.99-0.003906-79.605 60.934-146.35 137.77-154.99m17.219-17.223c-94.551 0-172.21 77.66-172.21 172.21s77.66 172.21 172.21 172.21 172.21-77.66 172.21-172.21h-172.21z"/>
  <path d="m410.45 203.79c34.668 3.8672 66.895 20.34 92.164 45.605 25.238 25.242 41.715 57.543 45.602 92.164h-137.77v-136.81m-17.223-18.176v171.2l172.21 1.0078c0-94.555-77.66-172.21-172.21-172.21z"/>
 </g>
</svg>
